<svg height="480pt" viewBox="-40 0 480 480" width="480pt" xmlns="http://www.w3.org/2000/svg"><path d="m392 0h-336c-30.910156.0390625-55.9609375 25.089844-56 56v368.039062c.0585938 30.898438 25.101562 55.925782 56 55.960938h336c4.417969 0 8-3.582031 8-8v-464c0-4.417969-3.582031-8-8-8zm-8 368h-320v-352h320zm-368-312c.023438-19 13.386719-35.371094 32-39.199219v351.824219c-11.960938 1.65625-23.046875 7.199219-31.550781 15.773438l-.449219.441406zm40 408c-22.046875-.042969-39.917969-17.882812-40-39.929688.046875-.316406.074219-.636718.078125-.957031.453125-21.726562 18.191406-39.105469 39.921875-39.113281h328v15.878906l-184 .121094c-4.417969 0-8 3.582031-8 8s3.582031 8 8 8l184-.121094v16.273438l-272-.152344c-4.417969 0-8 3.582031-8 8s3.582031 8 8 8l272 .152344v15.847656zm0 0"/><path d="m152 304c17.671875 0 32-14.328125 32-32v-97.960938l96-27.429687v65.839844c-4.84375-2.878907-10.367188-4.417969-16-4.449219-17.671875 0-32 14.328125-32 32s14.328125 32 32 32 32-14.328125 32-32v-136c0-2.507812-1.175781-4.875-3.179688-6.386719-2.003906-1.511719-4.597656-1.996093-7.011718-1.308593l-112 32c-3.4375.980468-5.808594 4.121093-5.808594 7.695312v108.449219c-4.84375-2.878907-10.367188-4.417969-16-4.449219-17.671875 0-32 14.328125-32 32s14.328125 32 32 32zm112-48c-8.835938 0-16-7.164062-16-16s7.164062-16 16-16 16 7.164062 16 16-7.164062 16-16 16zm-80-113.96875 96-27.421875v15.359375l-96 27.421875zm-32 113.96875c8.835938 0 16 7.164062 16 16s-7.164062 16-16 16-16-7.164062-16-16 7.164062-16 16-16zm0 0"/></svg>